<svg width="506" height="513" viewBox="0 0 506 513" fill="none" xmlns="http://www.w3.org/2000/svg">
<path d="M420.545 243.557C423.292 243.271 425.758 245.265 425.96 248.02C427.92 274.832 423.178 301.74 412.126 326.304C401.073 350.869 384.082 372.265 362.716 388.582C360.521 390.258 357.392 389.735 355.785 387.49L269.397 266.826C267.164 263.707 269.129 259.34 272.944 258.942L420.545 243.557Z" fill="#F46F43"/>
<path d="M322.865 104.503C323.923 101.952 326.852 100.735 329.369 101.871C353.853 112.921 375.229 129.904 391.54 151.314C407.851 172.723 418.551 197.84 422.706 224.379C423.133 227.107 421.181 229.608 418.441 229.951L271.308 248.35C267.502 248.826 264.6 245.016 266.069 241.474L322.865 104.503Z" fill="#DD72C2"/>
<path d="M154.457 122.586C152.758 120.41 153.14 117.261 155.368 115.63C177.042 99.7598 202.348 89.517 229.014 85.8612C255.679 82.2054 282.809 85.2595 307.954 94.7105C310.539 95.682 311.755 98.6118 310.704 101.165L254.274 238.287C252.814 241.834 248.069 242.485 245.709 239.462L154.457 122.586Z" fill="#01B0FA"/>
<path d="M86.0714 274.368C83.3331 274.725 80.8162 272.794 80.5446 270.046C77.9022 243.313 81.9523 216.315 92.3652 191.496C102.778 166.676 119.204 144.87 140.129 128.026C142.28 126.294 145.421 126.737 147.086 128.941L236.455 247.261C238.767 250.322 236.914 254.738 233.111 255.233L86.0714 274.368Z" fill="#A57E6F"/>
<path d="M184.009 410.436C182.978 412.998 180.062 414.246 177.533 413.136C152.934 402.343 131.382 385.585 114.847 364.348C98.3119 343.111 87.3495 318.108 82.9167 291.613C82.461 288.89 84.3861 286.369 87.1225 285.997L234.055 266.056C237.855 265.54 240.798 269.319 239.366 272.877L184.009 410.436Z" fill="#F6DE1C"/>
<path d="M349.305 392.084C350.986 394.274 350.578 397.42 348.336 399.033C326.53 414.721 301.139 424.752 274.444 428.185C247.749 431.618 220.646 428.338 195.581 418.677C193.004 417.684 191.813 414.744 192.885 412.199L250.458 275.553C251.947 272.019 256.697 271.408 259.032 274.451L349.305 392.084Z" fill="#1CD3A3"/>
</svg>
